<svg width="205" height="185" viewBox="0 0 205 185" fill="none" xmlns="http://www.w3.org/2000/svg">
<g opacity="0.4" filter="url(#filter0_d)">
<g filter="url(#filter1_d)">
<path fill-rule="evenodd" clip-rule="evenodd" d="M30.4866 2.23346L102.491 66.9285L126.491 88.4924L198.518 153.208C200.107 154.638 201 156.576 201 158.597C201 160.618 200.107 162.557 198.518 163.987L186.508 174.767C185.72 175.475 184.785 176.036 183.755 176.42C182.726 176.803 181.622 177 180.508 177C179.393 177 178.29 176.803 177.26 176.42C176.231 176.036 175.295 175.475 174.508 174.767L102.488 110.054L78.4892 88.4899L6.48635 23.7923C5.69811 23.0847 5.07282 22.2445 4.6462 21.3197C4.21958 20.3949 4 19.4037 4 18.4026C4 17.4016 4.21958 16.4103 4.6462 15.4856C5.07282 14.5608 5.69811 13.7205 6.48635 13.0129L18.4865 2.23346C19.2742 1.5254 20.2096 0.963701 21.2391 0.580479C22.2686 0.197257 23.3721 0 24.4865 0C25.6009 0 26.7044 0.197257 27.7339 0.580479C28.7634 0.963701 29.6988 1.5254 30.4866 2.23346ZM186.508 2.23346L198.518 13.0129C200.107 14.4432 201 16.3816 201 18.4026C201 20.4236 200.107 22.362 198.518 23.7923L126.491 88.4924L102.488 110.054L30.4866 174.731C29.6988 175.439 28.7634 176.001 27.7339 176.384C26.7044 176.767 25.6009 176.965 24.4865 176.965C23.3721 176.965 22.2686 176.767 21.2391 176.384C20.2096 176.001 19.2742 175.439 18.4865 174.731L6.48635 163.952C5.69811 163.244 5.07282 162.404 4.6462 161.479C4.21958 160.554 4 159.563 4 158.562C4 157.561 4.21958 156.57 4.6462 155.645C5.07282 154.72 5.69811 153.88 6.48635 153.172L78.4892 88.4899L102.491 66.9285L174.508 2.23346C175.295 1.5254 176.231 0.963701 177.26 0.580479C178.29 0.197257 179.393 0 180.508 0C181.622 0 182.726 0.197257 183.755 0.580479C184.785 0.963701 185.72 1.5254 186.508 2.23346Z" fill="#FF0000"/>
<path fill-rule="evenodd" clip-rule="evenodd" d="M30.4866 2.23346L102.491 66.9285L126.491 88.4924L198.518 153.208C200.107 154.638 201 156.576 201 158.597C201 160.618 200.107 162.557 198.518 163.987L186.508 174.767C185.72 175.475 184.785 176.036 183.755 176.42C182.726 176.803 181.622 177 180.508 177C179.393 177 178.29 176.803 177.26 176.42C176.231 176.036 175.295 175.475 174.508 174.767L102.488 110.054L78.4892 88.4899L6.48635 23.7923C5.69811 23.0847 5.07282 22.2445 4.6462 21.3197C4.21958 20.3949 4 19.4037 4 18.4026C4 17.4016 4.21958 16.4103 4.6462 15.4856C5.07282 14.5608 5.69811 13.7205 6.48635 13.0129L18.4865 2.23346C19.2742 1.5254 20.2096 0.963701 21.2391 0.580479C22.2686 0.197257 23.3721 0 24.4865 0C25.6009 0 26.7044 0.197257 27.7339 0.580479C28.7634 0.963701 29.6988 1.5254 30.4866 2.23346ZM186.508 2.23346L198.518 13.0129C200.107 14.4432 201 16.3816 201 18.4026C201 20.4236 200.107 22.362 198.518 23.7923L126.491 88.4924L102.488 110.054L30.4866 174.731C29.6988 175.439 28.7634 176.001 27.7339 176.384C26.7044 176.767 25.6009 176.965 24.4865 176.965C23.3721 176.965 22.2686 176.767 21.2391 176.384C20.2096 176.001 19.2742 175.439 18.4865 174.731L6.48635 163.952C5.69811 163.244 5.07282 162.404 4.6462 161.479C4.21958 160.554 4 159.563 4 158.562C4 157.561 4.21958 156.57 4.6462 155.645C5.07282 154.72 5.69811 153.88 6.48635 153.172L78.4892 88.4899L102.491 66.9285L174.508 2.23346C175.295 1.5254 176.231 0.963701 177.26 0.580479C178.29 0.197257 179.393 0 180.508 0C181.622 0 182.726 0.197257 183.755 0.580479C184.785 0.963701 185.72 1.5254 186.508 2.23346Z" fill="url(#paint0_linear)"/>
<path d="M126.491 88.4924L102.491 66.9285L78.4892 88.4899L102.488 110.054L126.491 88.4924Z" fill="#FF0000"/>
<path d="M126.491 88.4924L102.491 66.9285L78.4892 88.4899L102.488 110.054L126.491 88.4924Z" fill="url(#paint1_linear)"/>
<path d="M126.491 91.8531L106.229 110.054L176.179 172.907L176.179 172.907C176.724 173.398 177.386 173.799 178.132 174.077C178.879 174.354 179.687 174.5 180.508 174.5C181.329 174.5 182.137 174.354 182.883 174.077C183.629 173.799 184.291 173.398 184.837 172.907L184.838 172.906L196.846 162.129C197.943 161.141 198.5 159.864 198.5 158.597C198.5 157.331 197.943 156.054 196.847 155.067L126.491 91.8531ZM126.491 91.8531L196.846 155.066L126.491 91.8531ZM28.8154 4.09279L28.8157 4.09309L98.75 66.9283L78.4893 85.1291L8.15726 21.9327L8.15644 21.932C7.61108 21.4424 7.19461 20.8758 6.91629 20.2725C6.63843 19.6701 6.5 19.0357 6.5 18.4026C6.5 17.7696 6.63843 17.1351 6.91629 16.5328C7.19462 15.9294 7.6111 15.3628 8.15644 14.8732L8.15699 14.8727L20.1571 4.09329L20.1577 4.09279C20.7032 3.60248 21.365 3.2012 22.1112 2.92342C22.8576 2.64559 23.6655 2.5 24.4865 2.5C25.3076 2.5 26.1154 2.64559 26.8618 2.92342C27.608 3.2012 28.2699 3.60248 28.8154 4.09279ZM126.491 85.1317L106.232 66.9286L176.178 4.09324L176.179 4.0928C176.724 3.60248 177.386 3.2012 178.132 2.92342C178.879 2.64559 179.687 2.5 180.508 2.5C181.329 2.5 182.137 2.64559 182.883 2.92342C183.629 3.20121 184.291 3.60249 184.837 4.09279L184.838 4.09397L196.846 14.8713C196.846 14.8715 196.846 14.8718 196.846 14.872C197.943 15.8592 198.5 17.1359 198.5 18.4026C198.5 19.6695 197.943 20.9463 196.846 21.9335C196.846 21.9336 196.846 21.9338 196.846 21.9339L126.491 85.1317ZM78.489 91.8507L98.7472 110.054L28.8159 172.871L28.8154 172.872C28.2699 173.362 27.6081 173.763 26.8618 174.041L27.7339 176.384L26.8618 174.041C26.1154 174.319 25.3075 174.465 24.4865 174.465C23.6655 174.465 22.8577 174.319 22.1112 174.041L21.2391 176.384L22.1112 174.041C21.365 173.763 20.7032 173.362 20.1576 172.872L20.1571 172.871L8.15699 162.092L8.15644 162.091C7.61109 161.602 7.19461 161.035 6.91629 160.432C6.63843 159.83 6.5 159.195 6.5 158.562C6.5 157.929 6.63842 157.294 6.91629 156.692C7.19461 156.089 7.61108 155.522 8.15642 155.033L8.15704 155.032L78.489 91.8507ZM102.491 70.2892L122.75 88.4922L102.488 106.693L82.2299 88.4901L102.491 70.2892Z" stroke="#231111" stroke-width="5"/>
</g>
</g>
<defs>
<filter id="filter0_d" x="0" y="0" width="205" height="185" filterUnits="userSpaceOnUse" color-interpolation-filters="sRGB">
<feFlood flood-opacity="0" result="BackgroundImageFix"/>
<feColorMatrix in="SourceAlpha" type="matrix" values="0 0 0 0 0 0 0 0 0 0 0 0 0 0 0 0 0 0 127 0"/>
<feOffset dy="4"/>
<feGaussianBlur stdDeviation="2"/>
<feColorMatrix type="matrix" values="0 0 0 0 0 0 0 0 0 0 0 0 0 0 0 0 0 0 0.25 0"/>
<feBlend mode="normal" in2="BackgroundImageFix" result="effect1_dropShadow"/>
<feBlend mode="normal" in="SourceGraphic" in2="effect1_dropShadow" result="shape"/>
</filter>
<filter id="filter1_d" x="0" y="0" width="205" height="185" filterUnits="userSpaceOnUse" color-interpolation-filters="sRGB">
<feFlood flood-opacity="0" result="BackgroundImageFix"/>
<feColorMatrix in="SourceAlpha" type="matrix" values="0 0 0 0 0 0 0 0 0 0 0 0 0 0 0 0 0 0 127 0"/>
<feOffset dy="4"/>
<feGaussianBlur stdDeviation="2"/>
<feColorMatrix type="matrix" values="0 0 0 0 0 0 0 0 0 0 0 0 0 0 0 0 0 0 0.25 0"/>
<feBlend mode="normal" in2="BackgroundImageFix" result="effect1_dropShadow"/>
<feBlend mode="normal" in="SourceGraphic" in2="effect1_dropShadow" result="shape"/>
</filter>
<linearGradient id="paint0_linear" x1="102.5" y1="0" x2="102.5" y2="177" gradientUnits="userSpaceOnUse">
<stop stop-color="white"/>
<stop offset="1" stop-color="white" stop-opacity="0"/>
</linearGradient>
<linearGradient id="paint1_linear" x1="102.5" y1="0" x2="102.5" y2="177" gradientUnits="userSpaceOnUse">
<stop stop-color="white"/>
<stop offset="1" stop-color="white" stop-opacity="0"/>
</linearGradient>
</defs>
</svg>
